<mxfile host="app.diagrams.net" agent="Mozilla/5.0 (Windows NT 10.0; Win64; x64) AppleWebKit/537.36 (KHTML, like Gecko) Chrome/131.0.0.0 Safari/537.36" version="25.0.3">
  <diagram id="nEazow4_32-kSM5Isloo" name="Page-1">
    <mxGraphModel dx="568" dy="282" grid="1" gridSize="10" guides="1" tooltips="1" connect="1" arrows="1" fold="1" page="1" pageScale="1" pageWidth="850" pageHeight="1100" math="1" shadow="0">
      <root>
        <mxCell id="0" />
        <mxCell id="1" parent="0" />
        <mxCell id="Ouut_5r_L3PEscMRINZ7-1" value="" style="endArrow=none;html=1;rounded=0;strokeWidth=2;startArrow=none;startFill=0;strokeColor=default;" parent="1" edge="1">
          <mxGeometry width="50" height="50" relative="1" as="geometry">
            <mxPoint x="240" y="160" as="sourcePoint" />
            <mxPoint x="540" y="160" as="targetPoint" />
          </mxGeometry>
        </mxCell>
        <mxCell id="Ouut_5r_L3PEscMRINZ7-2" value="" style="endArrow=none;html=1;rounded=0;strokeWidth=2;startArrow=none;startFill=0;strokeColor=default;" parent="1" edge="1">
          <mxGeometry width="50" height="50" relative="1" as="geometry">
            <mxPoint x="240" y="120" as="sourcePoint" />
            <mxPoint x="540" y="120" as="targetPoint" />
          </mxGeometry>
        </mxCell>
        <mxCell id="Ouut_5r_L3PEscMRINZ7-3" value="" style="endArrow=none;html=1;rounded=0;strokeWidth=2;startArrow=none;startFill=0;strokeColor=default;" parent="1" edge="1">
          <mxGeometry width="50" height="50" relative="1" as="geometry">
            <mxPoint x="240" y="200" as="sourcePoint" />
            <mxPoint x="540" y="200" as="targetPoint" />
          </mxGeometry>
        </mxCell>
        <mxCell id="Ouut_5r_L3PEscMRINZ7-4" value="" style="endArrow=none;html=1;rounded=0;strokeWidth=2;startArrow=none;startFill=0;strokeColor=default;" parent="1" edge="1">
          <mxGeometry width="50" height="50" relative="1" as="geometry">
            <mxPoint x="240" y="240" as="sourcePoint" />
            <mxPoint x="540" y="240" as="targetPoint" />
          </mxGeometry>
        </mxCell>
        <mxCell id="Ouut_5r_L3PEscMRINZ7-7" value="" style="endArrow=none;dashed=1;html=1;rounded=0;strokeWidth=1;" parent="1" edge="1">
          <mxGeometry width="50" height="50" relative="1" as="geometry">
            <mxPoint x="340" y="280" as="sourcePoint" />
            <mxPoint x="340" y="80" as="targetPoint" />
          </mxGeometry>
        </mxCell>
        <mxCell id="Ouut_5r_L3PEscMRINZ7-8" value="" style="endArrow=none;dashed=1;html=1;rounded=0;strokeWidth=1;" parent="1" edge="1">
          <mxGeometry width="50" height="50" relative="1" as="geometry">
            <mxPoint x="440" y="280" as="sourcePoint" />
            <mxPoint x="440" y="80" as="targetPoint" />
          </mxGeometry>
        </mxCell>
        <mxCell id="Ouut_5r_L3PEscMRINZ7-9" value="Process 1" style="text;html=1;align=center;verticalAlign=middle;resizable=0;points=[];autosize=1;strokeColor=none;fillColor=none;fontFamily=Times New Roman;fontStyle=1;fontSize=12;" parent="1" vertex="1">
          <mxGeometry x="167" y="105" width="70" height="30" as="geometry" />
        </mxCell>
        <mxCell id="Ouut_5r_L3PEscMRINZ7-10" value="Process 2" style="text;html=1;align=center;verticalAlign=middle;resizable=0;points=[];autosize=1;strokeColor=none;fillColor=none;fontFamily=Times New Roman;fontStyle=1;fontSize=12;" parent="1" vertex="1">
          <mxGeometry x="167" y="145" width="70" height="30" as="geometry" />
        </mxCell>
        <mxCell id="Ouut_5r_L3PEscMRINZ7-11" value="Process 3" style="text;html=1;align=center;verticalAlign=middle;resizable=0;points=[];autosize=1;strokeColor=none;fillColor=none;fontFamily=Times New Roman;fontStyle=1;fontSize=12;" parent="1" vertex="1">
          <mxGeometry x="167" y="183" width="70" height="30" as="geometry" />
        </mxCell>
        <mxCell id="Ouut_5r_L3PEscMRINZ7-12" value="Process 4" style="text;html=1;align=center;verticalAlign=middle;resizable=0;points=[];autosize=1;strokeColor=none;fillColor=none;fontFamily=Times New Roman;fontStyle=1;fontSize=12;" parent="1" vertex="1">
          <mxGeometry x="167" y="223" width="70" height="30" as="geometry" />
        </mxCell>
        <mxCell id="Ouut_5r_L3PEscMRINZ7-13" value="Vote \(B_k\)&lt;div&gt;&lt;div&gt;&lt;div&gt;&lt;div&gt;Propose&amp;nbsp;&lt;span style=&quot;background-color: initial;&quot;&gt;\(B_{k+1}\)&lt;/span&gt;&lt;/div&gt;&lt;/div&gt;&lt;/div&gt;&lt;/div&gt;" style="text;html=1;align=center;verticalAlign=middle;resizable=0;points=[];autosize=1;strokeColor=none;fillColor=none;fontFamily=Times New Roman;fontStyle=1;fontSize=12;strokeWidth=2;" parent="1" vertex="1">
          <mxGeometry x="230" y="240" width="120" height="40" as="geometry" />
        </mxCell>
        <mxCell id="Ouut_5r_L3PEscMRINZ7-14" value="Vote \(B_{k+1}\)&lt;div&gt;&lt;div&gt;&lt;div&gt;&lt;div&gt;Propose&amp;nbsp;&lt;span style=&quot;background-color: initial;&quot;&gt;\(B_{k+2}\)&lt;/span&gt;&lt;/div&gt;&lt;/div&gt;&lt;/div&gt;&lt;/div&gt;" style="text;html=1;align=center;verticalAlign=middle;resizable=0;points=[];autosize=1;strokeColor=none;fillColor=none;fontFamily=Times New Roman;fontStyle=1;fontSize=12;strokeWidth=2;" parent="1" vertex="1">
          <mxGeometry x="330" y="240" width="120" height="40" as="geometry" />
        </mxCell>
        <mxCell id="Ouut_5r_L3PEscMRINZ7-16" value="Vote \(B_{k+2}\)&lt;div&gt;&lt;div&gt;&lt;div&gt;&lt;div&gt;Propose&amp;nbsp;&lt;span style=&quot;background-color: initial;&quot;&gt;\(B_{k+3}\)&lt;/span&gt;&lt;/div&gt;&lt;/div&gt;&lt;/div&gt;&lt;/div&gt;" style="text;html=1;align=center;verticalAlign=middle;resizable=0;points=[];autosize=1;strokeColor=none;fillColor=none;fontFamily=Times New Roman;fontStyle=1;fontSize=12;strokeWidth=2;" parent="1" vertex="1">
          <mxGeometry x="432" y="240" width="120" height="40" as="geometry" />
        </mxCell>
        <mxCell id="Ouut_5r_L3PEscMRINZ7-43" value="" style="endArrow=classic;html=1;rounded=0;strokeColor=default;startArrow=none;startFill=0;" parent="1" edge="1">
          <mxGeometry width="50" height="50" relative="1" as="geometry">
            <mxPoint x="340.5" y="200" as="sourcePoint" />
            <mxPoint x="440.5" y="120" as="targetPoint" />
          </mxGeometry>
        </mxCell>
        <mxCell id="Ouut_5r_L3PEscMRINZ7-44" value="" style="endArrow=classic;html=1;rounded=0;strokeColor=default;startArrow=none;startFill=0;" parent="1" edge="1">
          <mxGeometry width="50" height="50" relative="1" as="geometry">
            <mxPoint x="340.5" y="200" as="sourcePoint" />
            <mxPoint x="440.5" y="160" as="targetPoint" />
          </mxGeometry>
        </mxCell>
        <mxCell id="Ouut_5r_L3PEscMRINZ7-61" value="" style="endArrow=classic;html=1;rounded=0;fillColor=#dae8fc;strokeColor=default;startArrow=none;startFill=0;" parent="1" edge="1">
          <mxGeometry width="50" height="50" relative="1" as="geometry">
            <mxPoint x="240" y="121" as="sourcePoint" />
            <mxPoint x="340" y="161" as="targetPoint" />
          </mxGeometry>
        </mxCell>
        <mxCell id="Ouut_5r_L3PEscMRINZ7-62" value="" style="endArrow=classic;html=1;rounded=0;fillColor=#dae8fc;strokeColor=default;startArrow=none;startFill=0;" parent="1" edge="1">
          <mxGeometry width="50" height="50" relative="1" as="geometry">
            <mxPoint x="240" y="121" as="sourcePoint" />
            <mxPoint x="340" y="201" as="targetPoint" />
          </mxGeometry>
        </mxCell>
        <mxCell id="Ouut_5r_L3PEscMRINZ7-63" value="" style="endArrow=classic;html=1;rounded=0;fillColor=#dae8fc;strokeColor=default;exitX=1.06;exitY=0.513;exitDx=0;exitDy=0;exitPerimeter=0;entryX=0.027;entryY=-0.03;entryDx=0;entryDy=0;entryPerimeter=0;startArrow=none;startFill=0;" parent="1" edge="1">
          <mxGeometry width="50" height="50" relative="1" as="geometry">
            <mxPoint x="241" y="121" as="sourcePoint" />
            <mxPoint x="338" y="240" as="targetPoint" />
          </mxGeometry>
        </mxCell>
        <mxCell id="Ouut_5r_L3PEscMRINZ7-23" value="" style="endArrow=classic;html=1;rounded=0;fillColor=#dae8fc;strokeColor=default;startArrow=none;startFill=0;" parent="1" edge="1">
          <mxGeometry width="50" height="50" relative="1" as="geometry">
            <mxPoint x="340" y="200.5" as="sourcePoint" />
            <mxPoint x="440" y="120" as="targetPoint" />
          </mxGeometry>
        </mxCell>
        <mxCell id="Ouut_5r_L3PEscMRINZ7-24" value="" style="endArrow=classic;html=1;rounded=0;fillColor=#dae8fc;strokeColor=default;startArrow=none;startFill=0;" parent="1" edge="1">
          <mxGeometry width="50" height="50" relative="1" as="geometry">
            <mxPoint x="340" y="200.5" as="sourcePoint" />
            <mxPoint x="440" y="160" as="targetPoint" />
          </mxGeometry>
        </mxCell>
        <mxCell id="Ouut_5r_L3PEscMRINZ7-25" value="" style="endArrow=classic;html=1;rounded=0;fillColor=#dae8fc;strokeColor=default;exitX=1.06;exitY=0.513;exitDx=0;exitDy=0;exitPerimeter=0;entryX=0.024;entryY=-0.03;entryDx=0;entryDy=0;entryPerimeter=0;startArrow=none;startFill=0;" parent="1" target="Ouut_5r_L3PEscMRINZ7-16" edge="1">
          <mxGeometry width="50" height="50" relative="1" as="geometry">
            <mxPoint x="341" y="200.5" as="sourcePoint" />
            <mxPoint x="438" y="319.5" as="targetPoint" />
          </mxGeometry>
        </mxCell>
        <mxCell id="Ouut_5r_L3PEscMRINZ7-64" value="" style="endArrow=classic;html=1;rounded=0;fillColor=#dae8fc;strokeColor=default;startArrow=none;startFill=0;" parent="1" edge="1">
          <mxGeometry width="50" height="50" relative="1" as="geometry">
            <mxPoint x="440" y="240" as="sourcePoint" />
            <mxPoint x="540" y="160" as="targetPoint" />
          </mxGeometry>
        </mxCell>
        <mxCell id="Ouut_5r_L3PEscMRINZ7-65" value="" style="endArrow=classic;html=1;rounded=0;fillColor=#dae8fc;strokeColor=default;startArrow=none;startFill=0;" parent="1" edge="1">
          <mxGeometry width="50" height="50" relative="1" as="geometry">
            <mxPoint x="442" y="240" as="sourcePoint" />
            <mxPoint x="542" y="200" as="targetPoint" />
          </mxGeometry>
        </mxCell>
        <mxCell id="Ouut_5r_L3PEscMRINZ7-66" value="" style="endArrow=classic;html=1;rounded=0;fillColor=#dae8fc;strokeColor=default;exitX=0.069;exitY=0.017;exitDx=0;exitDy=0;exitPerimeter=0;startArrow=none;startFill=0;" parent="1" source="Ouut_5r_L3PEscMRINZ7-16" edge="1">
          <mxGeometry width="50" height="50" relative="1" as="geometry">
            <mxPoint x="458" y="390" as="sourcePoint" />
            <mxPoint x="540" y="120" as="targetPoint" />
          </mxGeometry>
        </mxCell>
        <mxCell id="Ouut_5r_L3PEscMRINZ7-67" value="" style="endArrow=classic;html=1;rounded=0;fillColor=#dae8fc;strokeColor=#000000;fontFamily=Times New Roman;fontStyle=1" parent="1" edge="1">
          <mxGeometry width="50" height="50" relative="1" as="geometry">
            <mxPoint x="237" y="317" as="sourcePoint" />
            <mxPoint x="277" y="317" as="targetPoint" />
          </mxGeometry>
        </mxCell>
        <mxCell id="Ouut_5r_L3PEscMRINZ7-69" value="Optimistic&amp;nbsp;&lt;div&gt;Proposal&lt;/div&gt;" style="text;html=1;align=center;verticalAlign=middle;resizable=0;points=[];autosize=1;strokeColor=none;fillColor=none;fontFamily=Times New Roman;fontStyle=1" parent="1" vertex="1">
          <mxGeometry x="277" y="300" width="80" height="40" as="geometry" />
        </mxCell>
        <mxCell id="Ouut_5r_L3PEscMRINZ7-71" value="Vote" style="text;html=1;align=center;verticalAlign=middle;resizable=0;points=[];autosize=1;strokeColor=none;fillColor=none;fontFamily=Times New Roman;fontStyle=1" parent="1" vertex="1">
          <mxGeometry x="474" y="303" width="50" height="30" as="geometry" />
        </mxCell>
        <mxCell id="k6ZUzIFE6mjLoNwmqrNW-4" value="" style="endArrow=none;html=1;rounded=0;dashed=1;" edge="1" parent="1">
          <mxGeometry width="50" height="50" relative="1" as="geometry">
            <mxPoint x="444" y="319.73" as="sourcePoint" />
            <mxPoint x="474" y="319.73" as="targetPoint" />
          </mxGeometry>
        </mxCell>
        <mxCell id="k6ZUzIFE6mjLoNwmqrNW-89" value="" style="endArrow=none;html=1;rounded=0;dashed=1;" edge="1" parent="1">
          <mxGeometry width="50" height="50" relative="1" as="geometry">
            <mxPoint x="240" y="160" as="sourcePoint" />
            <mxPoint x="340" y="120" as="targetPoint" />
          </mxGeometry>
        </mxCell>
        <mxCell id="k6ZUzIFE6mjLoNwmqrNW-90" value="" style="endArrow=none;html=1;rounded=0;dashed=1;" edge="1" parent="1">
          <mxGeometry width="50" height="50" relative="1" as="geometry">
            <mxPoint x="240" y="160" as="sourcePoint" />
            <mxPoint x="340" y="200" as="targetPoint" />
          </mxGeometry>
        </mxCell>
        <mxCell id="k6ZUzIFE6mjLoNwmqrNW-91" value="" style="endArrow=none;html=1;rounded=0;entryX=0.083;entryY=0;entryDx=0;entryDy=0;entryPerimeter=0;dashed=1;" edge="1" parent="1">
          <mxGeometry width="50" height="50" relative="1" as="geometry">
            <mxPoint x="240" y="160" as="sourcePoint" />
            <mxPoint x="339.96000000000004" y="240" as="targetPoint" />
          </mxGeometry>
        </mxCell>
        <mxCell id="k6ZUzIFE6mjLoNwmqrNW-92" value="" style="endArrow=none;html=1;rounded=0;dashed=1;" edge="1" parent="1">
          <mxGeometry width="50" height="50" relative="1" as="geometry">
            <mxPoint x="240" y="120" as="sourcePoint" />
            <mxPoint x="340" y="160" as="targetPoint" />
          </mxGeometry>
        </mxCell>
        <mxCell id="k6ZUzIFE6mjLoNwmqrNW-93" value="" style="endArrow=none;html=1;rounded=0;dashed=1;" edge="1" parent="1">
          <mxGeometry width="50" height="50" relative="1" as="geometry">
            <mxPoint x="240" y="120" as="sourcePoint" />
            <mxPoint x="340" y="200" as="targetPoint" />
          </mxGeometry>
        </mxCell>
        <mxCell id="k6ZUzIFE6mjLoNwmqrNW-94" value="" style="endArrow=none;html=1;rounded=0;dashed=1;" edge="1" parent="1">
          <mxGeometry width="50" height="50" relative="1" as="geometry">
            <mxPoint x="240" y="120" as="sourcePoint" />
            <mxPoint x="340" y="240" as="targetPoint" />
          </mxGeometry>
        </mxCell>
        <mxCell id="k6ZUzIFE6mjLoNwmqrNW-95" value="" style="endArrow=none;html=1;rounded=0;dashed=1;" edge="1" parent="1">
          <mxGeometry width="50" height="50" relative="1" as="geometry">
            <mxPoint x="240" y="200" as="sourcePoint" />
            <mxPoint x="340" y="120" as="targetPoint" />
          </mxGeometry>
        </mxCell>
        <mxCell id="k6ZUzIFE6mjLoNwmqrNW-96" value="" style="endArrow=none;html=1;rounded=0;dashed=1;" edge="1" parent="1">
          <mxGeometry width="50" height="50" relative="1" as="geometry">
            <mxPoint x="240" y="200" as="sourcePoint" />
            <mxPoint x="340" y="160" as="targetPoint" />
          </mxGeometry>
        </mxCell>
        <mxCell id="k6ZUzIFE6mjLoNwmqrNW-97" value="" style="endArrow=none;html=1;rounded=0;dashed=1;" edge="1" parent="1">
          <mxGeometry width="50" height="50" relative="1" as="geometry">
            <mxPoint x="240" y="200" as="sourcePoint" />
            <mxPoint x="340" y="240" as="targetPoint" />
          </mxGeometry>
        </mxCell>
        <mxCell id="k6ZUzIFE6mjLoNwmqrNW-98" value="" style="endArrow=none;html=1;rounded=0;dashed=1;" edge="1" parent="1">
          <mxGeometry width="50" height="50" relative="1" as="geometry">
            <mxPoint x="241" y="239" as="sourcePoint" />
            <mxPoint x="340" y="120" as="targetPoint" />
          </mxGeometry>
        </mxCell>
        <mxCell id="k6ZUzIFE6mjLoNwmqrNW-99" value="" style="endArrow=none;html=1;rounded=0;dashed=1;" edge="1" parent="1">
          <mxGeometry width="50" height="50" relative="1" as="geometry">
            <mxPoint x="240" y="240" as="sourcePoint" />
            <mxPoint x="340" y="160" as="targetPoint" />
          </mxGeometry>
        </mxCell>
        <mxCell id="k6ZUzIFE6mjLoNwmqrNW-100" value="" style="endArrow=none;html=1;rounded=0;dashed=1;" edge="1" parent="1">
          <mxGeometry width="50" height="50" relative="1" as="geometry">
            <mxPoint x="240" y="240" as="sourcePoint" />
            <mxPoint x="340" y="200" as="targetPoint" />
          </mxGeometry>
        </mxCell>
        <mxCell id="k6ZUzIFE6mjLoNwmqrNW-101" value="" style="endArrow=none;html=1;rounded=0;dashed=1;" edge="1" parent="1">
          <mxGeometry width="50" height="50" relative="1" as="geometry">
            <mxPoint x="340" y="160" as="sourcePoint" />
            <mxPoint x="440" y="120" as="targetPoint" />
          </mxGeometry>
        </mxCell>
        <mxCell id="k6ZUzIFE6mjLoNwmqrNW-102" value="" style="endArrow=none;html=1;rounded=0;dashed=1;" edge="1" parent="1">
          <mxGeometry width="50" height="50" relative="1" as="geometry">
            <mxPoint x="340" y="160" as="sourcePoint" />
            <mxPoint x="440" y="200" as="targetPoint" />
          </mxGeometry>
        </mxCell>
        <mxCell id="k6ZUzIFE6mjLoNwmqrNW-103" value="" style="endArrow=none;html=1;rounded=0;entryX=0.083;entryY=0;entryDx=0;entryDy=0;entryPerimeter=0;dashed=1;" edge="1" parent="1">
          <mxGeometry width="50" height="50" relative="1" as="geometry">
            <mxPoint x="340" y="160" as="sourcePoint" />
            <mxPoint x="439.96000000000004" y="240" as="targetPoint" />
          </mxGeometry>
        </mxCell>
        <mxCell id="k6ZUzIFE6mjLoNwmqrNW-104" value="" style="endArrow=none;html=1;rounded=0;dashed=1;" edge="1" parent="1">
          <mxGeometry width="50" height="50" relative="1" as="geometry">
            <mxPoint x="340" y="120" as="sourcePoint" />
            <mxPoint x="440" y="160" as="targetPoint" />
          </mxGeometry>
        </mxCell>
        <mxCell id="k6ZUzIFE6mjLoNwmqrNW-105" value="" style="endArrow=none;html=1;rounded=0;dashed=1;" edge="1" parent="1">
          <mxGeometry width="50" height="50" relative="1" as="geometry">
            <mxPoint x="340" y="120" as="sourcePoint" />
            <mxPoint x="440" y="200" as="targetPoint" />
          </mxGeometry>
        </mxCell>
        <mxCell id="k6ZUzIFE6mjLoNwmqrNW-106" value="" style="endArrow=none;html=1;rounded=0;dashed=1;" edge="1" parent="1">
          <mxGeometry width="50" height="50" relative="1" as="geometry">
            <mxPoint x="340" y="120" as="sourcePoint" />
            <mxPoint x="440" y="240" as="targetPoint" />
          </mxGeometry>
        </mxCell>
        <mxCell id="k6ZUzIFE6mjLoNwmqrNW-107" value="" style="endArrow=none;html=1;rounded=0;dashed=1;" edge="1" parent="1">
          <mxGeometry width="50" height="50" relative="1" as="geometry">
            <mxPoint x="340" y="200" as="sourcePoint" />
            <mxPoint x="440" y="120" as="targetPoint" />
          </mxGeometry>
        </mxCell>
        <mxCell id="k6ZUzIFE6mjLoNwmqrNW-108" value="" style="endArrow=none;html=1;rounded=0;dashed=1;" edge="1" parent="1">
          <mxGeometry width="50" height="50" relative="1" as="geometry">
            <mxPoint x="340" y="200" as="sourcePoint" />
            <mxPoint x="440" y="160" as="targetPoint" />
          </mxGeometry>
        </mxCell>
        <mxCell id="k6ZUzIFE6mjLoNwmqrNW-109" value="" style="endArrow=none;html=1;rounded=0;dashed=1;" edge="1" parent="1">
          <mxGeometry width="50" height="50" relative="1" as="geometry">
            <mxPoint x="340" y="200" as="sourcePoint" />
            <mxPoint x="440" y="240" as="targetPoint" />
          </mxGeometry>
        </mxCell>
        <mxCell id="k6ZUzIFE6mjLoNwmqrNW-110" value="" style="endArrow=none;html=1;rounded=0;dashed=1;" edge="1" parent="1">
          <mxGeometry width="50" height="50" relative="1" as="geometry">
            <mxPoint x="341" y="239" as="sourcePoint" />
            <mxPoint x="440" y="120" as="targetPoint" />
          </mxGeometry>
        </mxCell>
        <mxCell id="k6ZUzIFE6mjLoNwmqrNW-111" value="" style="endArrow=none;html=1;rounded=0;dashed=1;" edge="1" parent="1">
          <mxGeometry width="50" height="50" relative="1" as="geometry">
            <mxPoint x="340" y="240" as="sourcePoint" />
            <mxPoint x="440" y="160" as="targetPoint" />
          </mxGeometry>
        </mxCell>
        <mxCell id="k6ZUzIFE6mjLoNwmqrNW-112" value="" style="endArrow=none;html=1;rounded=0;dashed=1;" edge="1" parent="1">
          <mxGeometry width="50" height="50" relative="1" as="geometry">
            <mxPoint x="340" y="240" as="sourcePoint" />
            <mxPoint x="440" y="200" as="targetPoint" />
          </mxGeometry>
        </mxCell>
        <mxCell id="k6ZUzIFE6mjLoNwmqrNW-113" value="" style="endArrow=none;html=1;rounded=0;dashed=1;" edge="1" parent="1">
          <mxGeometry width="50" height="50" relative="1" as="geometry">
            <mxPoint x="442" y="160" as="sourcePoint" />
            <mxPoint x="542" y="120" as="targetPoint" />
          </mxGeometry>
        </mxCell>
        <mxCell id="k6ZUzIFE6mjLoNwmqrNW-114" value="" style="endArrow=none;html=1;rounded=0;dashed=1;" edge="1" parent="1">
          <mxGeometry width="50" height="50" relative="1" as="geometry">
            <mxPoint x="442" y="160" as="sourcePoint" />
            <mxPoint x="542" y="200" as="targetPoint" />
          </mxGeometry>
        </mxCell>
        <mxCell id="k6ZUzIFE6mjLoNwmqrNW-115" value="" style="endArrow=none;html=1;rounded=0;entryX=0.083;entryY=0;entryDx=0;entryDy=0;entryPerimeter=0;dashed=1;" edge="1" parent="1">
          <mxGeometry width="50" height="50" relative="1" as="geometry">
            <mxPoint x="442" y="160" as="sourcePoint" />
            <mxPoint x="541.96" y="240" as="targetPoint" />
          </mxGeometry>
        </mxCell>
        <mxCell id="k6ZUzIFE6mjLoNwmqrNW-116" value="" style="endArrow=none;html=1;rounded=0;dashed=1;" edge="1" parent="1">
          <mxGeometry width="50" height="50" relative="1" as="geometry">
            <mxPoint x="442" y="120" as="sourcePoint" />
            <mxPoint x="542" y="160" as="targetPoint" />
          </mxGeometry>
        </mxCell>
        <mxCell id="k6ZUzIFE6mjLoNwmqrNW-117" value="" style="endArrow=none;html=1;rounded=0;dashed=1;" edge="1" parent="1">
          <mxGeometry width="50" height="50" relative="1" as="geometry">
            <mxPoint x="442" y="120" as="sourcePoint" />
            <mxPoint x="542" y="200" as="targetPoint" />
          </mxGeometry>
        </mxCell>
        <mxCell id="k6ZUzIFE6mjLoNwmqrNW-118" value="" style="endArrow=none;html=1;rounded=0;dashed=1;" edge="1" parent="1">
          <mxGeometry width="50" height="50" relative="1" as="geometry">
            <mxPoint x="442" y="120" as="sourcePoint" />
            <mxPoint x="542" y="240" as="targetPoint" />
          </mxGeometry>
        </mxCell>
        <mxCell id="k6ZUzIFE6mjLoNwmqrNW-119" value="" style="endArrow=none;html=1;rounded=0;dashed=1;" edge="1" parent="1">
          <mxGeometry width="50" height="50" relative="1" as="geometry">
            <mxPoint x="442" y="200" as="sourcePoint" />
            <mxPoint x="542" y="120" as="targetPoint" />
          </mxGeometry>
        </mxCell>
        <mxCell id="k6ZUzIFE6mjLoNwmqrNW-120" value="" style="endArrow=none;html=1;rounded=0;dashed=1;" edge="1" parent="1">
          <mxGeometry width="50" height="50" relative="1" as="geometry">
            <mxPoint x="442" y="200" as="sourcePoint" />
            <mxPoint x="542" y="160" as="targetPoint" />
          </mxGeometry>
        </mxCell>
        <mxCell id="k6ZUzIFE6mjLoNwmqrNW-121" value="" style="endArrow=none;html=1;rounded=0;dashed=1;" edge="1" parent="1">
          <mxGeometry width="50" height="50" relative="1" as="geometry">
            <mxPoint x="442" y="200" as="sourcePoint" />
            <mxPoint x="542" y="240" as="targetPoint" />
          </mxGeometry>
        </mxCell>
        <mxCell id="k6ZUzIFE6mjLoNwmqrNW-122" value="" style="endArrow=none;html=1;rounded=0;dashed=1;" edge="1" parent="1">
          <mxGeometry width="50" height="50" relative="1" as="geometry">
            <mxPoint x="443" y="239" as="sourcePoint" />
            <mxPoint x="542" y="120" as="targetPoint" />
          </mxGeometry>
        </mxCell>
        <mxCell id="k6ZUzIFE6mjLoNwmqrNW-123" value="" style="endArrow=none;html=1;rounded=0;dashed=1;" edge="1" parent="1">
          <mxGeometry width="50" height="50" relative="1" as="geometry">
            <mxPoint x="442" y="240" as="sourcePoint" />
            <mxPoint x="542" y="160" as="targetPoint" />
          </mxGeometry>
        </mxCell>
        <mxCell id="k6ZUzIFE6mjLoNwmqrNW-124" value="" style="endArrow=none;html=1;rounded=0;dashed=1;" edge="1" parent="1">
          <mxGeometry width="50" height="50" relative="1" as="geometry">
            <mxPoint x="442" y="240" as="sourcePoint" />
            <mxPoint x="542" y="200" as="targetPoint" />
          </mxGeometry>
        </mxCell>
      </root>
    </mxGraphModel>
  </diagram>
</mxfile>
